<svg viewBox="0 0 180 100" fill="none" xmlns="http://www.w3.org/2000/svg">
  <path fill-rule="evenodd" clip-rule="evenodd" d="M79.48 38.99C79.48 28.5 87.22 20 96.77 20c4.9 0 9.32 2.24 12.47 5.84A16.54 16.54 0 0 1 121.71 20c9.55 0 17.29 8.5 17.29 18.99a19.8 19.8 0 0 1-5.8 14.2l-23.94 26.33-23.94-26.3a19.79 19.79 0 0 1-5.84-14.23Z" fill="red"/>
  <path fill-rule="evenodd" clip-rule="evenodd" d="M131.18 42.1c0-7.8-5.75-14.1-12.84-14.1-3.63 0-6.92 1.66-9.25 4.33A12.28 12.28 0 0 0 99.83 28C92.74 28 87 34.31 87 42.1a14.7 14.7 0 0 0 4.3 10.53l17.78 19.54 17.76-19.52a14.69 14.69 0 0 0 4.34-10.56Z" fill="#000"/>
  <path d="M17 59.05h14.39l2.77 6.24 3.12-12.45 3.27 8.95 2.31-2.74h7.85L53.1 20l4.1 60 5.06-33.98 3.57 15.77 4-9.94 3.9 9.94 2.86-2.74h21.97l2.31 5.43 3.3-12.63 3.2 9.94 2.58-2.74h7.47L120.17 20l3.57 60 4.98-33.98 3.9 15.77 3.64-9.94 3.93 9.94 2.57-2.74H162" stroke="red"/>
</svg>
