<svg width="180" height="100" viewBox="0 0 180 100" fill="none" xmlns="http://www.w3.org/2000/svg">
<path fill-rule="evenodd" clip-rule="evenodd" d="M79.4806 38.9879C79.4806 28.5012 87.2207 20 96.7686 20C101.67 20 106.094 22.2399 109.24 25.8385C112.386 22.2399 116.811 20 121.712 20C131.26 20 139 28.5012 139 38.9879C139 44.6334 136.757 49.7035 133.196 53.1815L133.197 53.1824L109.255 79.5195L85.3209 53.2173L85.3211 53.217C81.7391 49.738 79.4806 44.6527 79.4806 38.9879Z" fill="#FF0000"/>
<path fill-rule="evenodd" clip-rule="evenodd" d="M131.175 42.0926C131.175 34.3095 125.43 28 118.344 28C114.706 28 111.422 29.6624 109.087 32.3333C106.752 29.6624 103.468 28 99.831 28C92.7446 28 87 34.3095 87 42.0926C87 46.2826 88.6649 50.0456 91.3077 52.6269L91.3071 52.6276L109.076 72.1746L126.84 52.6535L126.84 52.6533C129.498 50.0712 131.175 46.2969 131.175 42.0926Z" fill="black"/>
<path d="M17 59.0533H31.3893L34.1565 65.2916L37.2759 52.8402L40.5461 61.7921L42.8605 59.0533H50.7092L53.0991 20L57.1995 80L62.2559 46.0186L65.8281 61.7921L69.8279 51.8512L73.7271 61.7921L76.5949 59.0533H98.5562L100.871 64.4801L104.166 51.8512L107.361 61.7921L109.952 59.0533H117.423L120.165 20L123.738 80L128.718 46.0186L132.618 61.7921L136.265 51.8512L140.19 61.7921L142.756 59.0533H162" stroke="#FF0000"/>
</svg>
